Coordinates
version=1
nRows=5
nColumns=63
inDegrees=yes

Units are S.I. units (second, meters, Newtons, ...)
If the header above contains a line with 'inDegrees', this indicates whether rotational values are in degrees (yes) or radians (no).

endheader
time	pelvis_tilt	pelvis_list	pelvis_rotation	pelvis_tx	pelvis_ty	pelvis_tz	hip_flexion_r	hip_adduction_r	hip_rotation_r	knee_angle_r	knee_angle_r_beta	ankle_angle_r	subtalar_angle_r	mtp_angle_r	hip_flexion_l	hip_adduction_l	hip_rotation_l	knee_angle_l	knee_angle_l_beta	ankle_angle_l	subtalar_angle_l	mtp_angle_l	L5_S1_Flex_Ext	L5_S1_Lat_Bending	L5_S1_axial_rotation	L4_L5_Flex_Ext	L4_L5_Lat_Bending	L4_L5_axial_rotation	L3_L4_Flex_Ext	L3_L4_Lat_Bending	L3_L4_axial_rotation	L2_L3_Flex_Ext	L2_L3_Lat_Bending	L2_L3_axial_rotation	L1_L2_Flex_Ext	L1_L2_Lat_Bending	L1_L2_axial_rotation	L1_T12_Flex_Ext	L1_T12_Lat_Bending	L1_T12_axial_rotation	Abs_r3	Abs_r2	Abs_r1	Abs_t1	Abs_t2	neck_flexion	neck_bending	neck_rotation	arm_flex_r	arm_add_r	arm_rot_r	elbow_flex_r	pro_sup_r	wrist_flex_r	wrist_dev_r	arm_flex_l	arm_add_l	arm_rot_l	elbow_flex_l	pro_sup_l	wrist_flex_l	wrist_dev_l
      0.00000000	      0.62726592	     -4.42505211	     90.68049268	      0.23391786	      0.87892308	      0.62974973	     -3.79618847	      3.30781859	      1.56571334	      5.67742885	      0.09908983	     32.65090725	     -8.27672241	      0.00000000	     -5.80132955	     -2.08636838	     15.55505256	      0.39561585	      0.00690480	     34.85896799	     -5.85204737	      0.00000000	      0.01911284	      0.36692172	     -1.39713649	      0.03549446	      0.48800589	     -1.48445753	      0.03140049	      0.89213348	     -1.48445753	      0.02184407	      0.89213348	     -1.22249443	      0.01774818	      0.74822678	     -1.13517340	      0.01092108	      0.56836175	     -1.04785237	      0.13652111	      4.15069193	     -7.77045404	      0.00000000	      0.00000000	     27.33603417	     -1.01362408	     -0.87998523	     26.61027746	     -9.49876622	     91.35458548	     44.33696456	     89.08734067	     14.80578619	     26.37877595	     13.81133715	     -8.69573915	     56.01736717	     46.22717847	     88.62340153	      9.15559119	     15.91940459
      0.01754386	      0.32486916	     -4.43685284	     90.50127082	      0.23476058	      0.87832194	      0.62871026	     -3.86892089	      2.97230930	      2.65117784	      5.52137488	      0.09636617	     33.02411400	     -8.44714937	      0.00000000	     -5.87563704	     -1.74362256	     15.39556215	      0.37573867	      0.00655788	     34.21719217	     -6.15404816	      0.00000000	      0.02072134	      0.30937959	     -1.38115321	      0.03848159	      0.41147485	     -1.46747529	      0.03404308	      0.75222553	     -1.46747529	      0.02368241	      0.75222553	     -1.20850906	      0.01924183	      0.63088685	     -1.12218699	      0.01184017	      0.47922898	     -1.03586491	      0.14801042	      3.49976376	     -7.68155984	      0.00000000	      0.00000000	     27.46558201	     -0.61449535	     -1.73297461	     25.34307215	     -9.71874919	     88.83038592	     44.68592598	     88.89978908	     14.54785859	     25.81577658	     12.06237135	     -8.99505840	     52.56150579	     47.50558653	     88.63234102	      7.61118834	     15.66897456
      0.03508772	      0.10445122	     -4.58047930	     90.40386991	      0.23529610	      0.87757442	      0.62769902	     -3.80668581	      2.76319411	      4.36515789	      5.37022102	      0.09372804	     33.01537458	     -9.90732157	      0.00000000	     -5.78867944	     -1.48628366	     15.63500536	      0.36202771	      0.00631858	     33.79937635	     -6.78756969	      0.00000000	      0.04988599	      0.27034719	     -1.38261795	      0.09264327	      0.35956176	     -1.46903157	      0.08195769	      0.65732215	     -1.46903157	      0.05701470	      0.65732215	     -1.20979071	      0.04632413	      0.55129198	     -1.12337709	      0.02850485	      0.41876779	     -1.03696346	      0.35633062	      3.05822145	     -7.68970626	      0.00000000	      0.00000000	     27.53804100	     -0.26579337	     -1.95387787	     24.03589626	     -9.80882974	     85.89546247	     44.85562825	     88.79852429	     15.52316083	     26.06750710	     10.68158116	     -9.04597659	     49.56461870	     48.67779388	     88.75260137	      7.76807824	     17.45668431
      0.05263158	     -0.08959905	     -4.55949210	     90.28094275	      0.23559916	      0.87723977	      0.62691653	     -3.94171066	      2.58339098	      6.27756000	      5.15089927	      0.08990015	     32.67765041	    -11.89968075	      0.00000000	     -5.86030128	     -1.24056967	     16.04363912	      0.35128957	      0.00613116	     33.51745221	     -7.62901865	      0.00000000	      0.05450179	      0.24236057	     -1.37874820	      0.10121527	      0.32233956	     -1.46491996	      0.08954099	      0.58927549	     -1.46491996	      0.06229009	      0.58927549	     -1.20640468	      0.05061036	      0.49422168	     -1.12023291	      0.03114232	      0.37541653	     -1.03406115	      0.38930083	      2.74163126	     -7.66818387	      0.00000000	      0.00000000	     27.57449572	     -0.30592380	     -1.98195263	     23.39886616	     -9.77682191	     84.43640860	     44.93042095	     88.73789649	     16.25106808	     26.08747057	     10.06566292	     -9.04032872	     47.85612567	     49.21656329	     88.79412453	      9.32236699	     18.85339393
      0.07017544	     -0.08630257	     -4.54913681	     90.28691841	      0.23534672	      0.87724315	      0.62669967	     -3.93466539	      2.54522507	      6.32117995	      5.14726367	      0.08983670	     32.66420895	    -11.89139173	      0.00000000	     -5.86161380	     -1.19920308	     16.01778895	      0.34750107	      0.00606504	     33.55072127	     -7.66130800	      0.00000000	      0.05615554	      0.24308138	     -1.38864635	      0.10428645	      0.32329824	     -1.47543675	      0.09225793	      0.59102807	     -1.47543675	      0.06418016	      0.59102807	     -1.21506556	      0.05214603	      0.49569156	     -1.12827516	      0.03208727	      0.37653306	     -1.04148476	      0.40111338	      2.74978521	     -7.72323442	      0.00000000	      0.00000000	     27.57237772	     -0.34301117	     -1.95784884	     23.38601363	     -9.74114688	     84.43647215	     44.96485762	     88.73459964	     16.25290036	     26.07392142	     10.08427947	     -9.03107273	     47.87596338	     49.23492755	     88.80817307	      9.35055908	     18.87522462
